<svg style="display: none;" xmlns="http://www.w3.org/2000/svg">
    <symbol id="icon2" viewBox="0 0 25 25">
        <!-- SVG content -->
    </symbol>
    <symbol id="checks" viewBox="0 0 25 25">
        <svg class="w-6 h-6 text-gray-800 dark:text-yellow" aria-hidden="true" xmlns="http://www.w3.org/2000/svg"
            width="24" height="24" fill="none" viewBox="0 0 24 24">
            <path stroke="currentColor" stroke-linecap="round" stroke-linejoin="round" stroke-width="2"
                d="M5 11.917 9.724 16.5 19 7.5" />
        </svg>
    </symbol>
    <symbol id="facebook" viewBox="0 0 25 25">
        <svg xmlns="http://www.w3.org/2000/svg" width="24" height="24" viewBox="0 0 24 24" fill="white">
            <path
                d="M9.04598 5.865V8.613H7.03198V11.973H9.04598V21.959H13.18V11.974H15.955C15.955 11.974 16.215 10.363 16.341 8.601H13.197V6.303C13.197 5.96 13.647 5.498 14.093 5.498H16.347V2H13.283C8.94298 2 9.04598 5.363 9.04598 5.865Z"
                fill="#F5F5F8" />
        </svg>
    </symbol>
    <symbol id="linkedin" viewBox="0 0 25 25">
        <svg xmlns="http://www.w3.org/2000/svg" width="24" height="24" viewBox="0 0 24 24" fill="none">
            <path
                d="M21.959 13.719V21.098H17.681V14.213C17.681 12.483 17.062 11.303 15.514 11.303C14.332 11.303 13.628 12.099 13.319 12.868C13.206 13.143 13.177 13.526 13.177 13.911V21.098H8.897C8.897 21.098 8.955 9.438 8.897 8.229H13.177V10.053L13.149 10.095H13.177V10.053C13.745 9.178 14.76 7.927 17.033 7.927C19.848 7.927 21.959 9.767 21.959 13.719ZM4.421 2.026C2.958 2.026 2 2.986 2 4.249C2 5.484 2.93 6.473 4.365 6.473H4.393C5.886 6.473 6.813 5.484 6.813 4.249C6.787 2.986 5.887 2.026 4.422 2.026H4.421ZM2.254 21.098H6.532V8.229H2.254V21.098Z"
                fill="#F5F5F8" />
        </svg>
    </symbol>
    <symbol id="github" viewBox="0 0 25 25">
        <svg xmlns="http://www.w3.org/2000/svg" width="24" height="24" viewBox="0 0 24 24" fill="none">
            <path
                d="M12 0.999953C9.11346 0.970621 6.33338 2.08856 4.27073 4.10808C2.20809 6.12759 1.03166 8.88344 1 11.77C1.01112 14.0511 1.74494 16.2701 3.09606 18.1081C4.44718 19.9461 6.34607 21.3086 8.52 21.9999C9.07 22.0999 9.27 21.7699 9.27 21.4799C9.27 21.1899 9.27 20.5499 9.27 19.6499C6.21 20.2999 5.56 18.2099 5.56 18.2099C5.3563 17.5538 4.92323 16.993 4.34 16.6299C3.34 15.9699 4.42 15.98 4.42 15.98C4.76565 16.0262 5.09635 16.15 5.38731 16.3423C5.67826 16.5345 5.92192 16.7901 6.1 17.09C6.41033 17.6281 6.91953 18.0228 7.51801 18.1893C8.11649 18.3557 8.75639 18.2806 9.3 17.9799C9.35591 17.4323 9.60389 16.9222 10 16.54C7.56 16.27 5 15.35 5 11.22C4.97818 10.1426 5.37624 9.09906 6.11 8.30995C5.77583 7.38502 5.81529 6.36626 6.22 5.46995C6.22 5.46995 7.15 5.17995 9.22 6.56995C11.0219 6.08979 12.9181 6.08979 14.72 6.56995C16.82 5.17995 17.72 5.46995 17.72 5.46995C18.1247 6.36626 18.1642 7.38502 17.83 8.30995C18.5808 9.0846 19.0004 10.1212 19 11.2C19 15.34 16.42 16.25 14 16.52C14.265 16.7772 14.4697 17.09 14.5994 17.4358C14.729 17.7816 14.7805 18.1519 14.75 18.52V21.4699C14.75 21.4699 14.95 22.0999 15.5 21.9899C17.6678 21.2944 19.5603 19.9315 20.9072 18.0961C22.2541 16.2607 22.9866 14.0465 23 11.77C22.9683 8.88344 21.7919 6.12759 19.7293 4.10808C17.6666 2.08856 14.8865 0.970621 12 0.999953Z"
                fill="#F5F5F8" />
        </svg>
    </symbol>
    <symbol id="discord" viewBox="0 0 25 25">
        <svg xmlns="http://www.w3.org/2000/svg" x="0px" y="0px" width="100" height="100" viewBox="0 0 50 50">
            <path 
                fill="#F5F5F8" 
                d="M 30.980469 7 A 1.0001 1.0001 0 0 0 30.089844 7.5859375 C 30.089844 7.5859375 29.75543 8.3287993 29.546875 9.3964844 C 27.583844 9.08239 25.937423 9 25 9 C 24.062577 9 22.416156 9.08239 20.453125 9.3964844 C 20.24457 8.3287993 19.910156 7.5859375 19.910156 7.5859375 A 1.0001 1.0001 0 0 0 18.943359 7.0019531 A 1.0001 1.0001 0 0 0 18.919922 7.0039062 C 18.919922 7.0039062 12.553656 7.42053 8.3808594 10.714844 A 1.0001 1.0001 0 0 0 8.3125 10.773438 C 7.6051397 11.441499 7.0599467 12.483658 6.390625 13.972656 C 5.7213033 15.461655 5.0156888 17.355449 4.3671875 19.498047 C 3.0701848 23.783242 2 29.054167 2 34 A 1.0001 1.0001 0 0 0 2.1347656 34.5 C 3.6151076 37.06213 6.2964412 38.611763 8.8007812 39.582031 C 11.305121 40.552299 13.620576 40.938706 14.748047 40.998047 A 1.0001 1.0001 0 0 0 15.613281 40.583984 L 18.025391 37.222656 C 19.998188 37.682914 22.316458 38 25 38 C 27.683542 38 30.001812 37.682914 31.974609 37.222656 L 34.386719 40.583984 A 1.0001 1.0001 0 0 0 35.251953 40.998047 C 36.379424 40.938707 38.694879 40.552299 41.199219 39.582031 C 43.703559 38.611763 46.384892 37.06213 47.865234 34.5 A 1.0001 1.0001 0 0 0 48 34 C 48 29.054167 46.929815 23.783242 45.632812 19.498047 C 44.984311 17.355449 44.278697 15.461655 43.609375 13.972656 C 42.940053 12.483658 42.39486 11.4415 41.6875 10.773438 A 1.0001 1.0001 0 0 0 41.619141 10.714844 C 37.446345 7.4205261 31.080078 7.0039062 31.080078 7.0039062 A 1.0001 1.0001 0 0 0 30.980469 7 z M 18.263672 9.1445312 C 18.338023 9.3538231 18.416696 9.5349501 18.482422 9.7851562 C 16.221549 10.302605 13.725951 11.138257 11.384766 12.542969 A 1.0001 1.0001 0 1 0 12.414062 14.257812 C 17.145045 11.419224 23.026984 11 25 11 C 26.973016 11 32.854955 11.419224 37.585938 14.257812 A 1.0001 1.0001 0 1 0 38.615234 12.542969 C 36.274049 11.138257 33.778451 10.302605 31.517578 9.7851562 C 31.583304 9.5349501 31.661977 9.3538231 31.736328 9.1445312 C 32.883827 9.2845319 37.303989 9.8986933 40.330078 12.255859 C 40.530966 12.454191 41.167937 13.419879 41.785156 14.792969 C 42.409585 16.182095 43.092251 18.008223 43.71875 20.078125 C 44.94318 24.123544 45.923302 29.105367 45.96875 33.673828 C 44.812422 35.508607 42.668548 36.867546 40.476562 37.716797 C 38.412289 38.516568 36.571749 38.793003 35.630859 38.884766 L 34.033203 36.658203 C 34.86819 36.390791 35.623526 36.10522 36.287109 35.816406 C 38.812028 34.717478 40.158203 33.552734 40.158203 33.552734 A 1.0001 1.0001 0 1 0 38.841797 32.046875 C 38.841797 32.046875 37.788363 32.98135 35.488281 33.982422 C 34.575634 34.379637 33.469164 34.775673 32.181641 35.113281 A 1.0001 1.0001 0 0 0 32.138672 35.125 C 30.189141 35.632527 27.818222 36 25 36 C 22.20293 36 19.847555 35.638295 17.90625 35.136719 A 1.0001 1.0001 0 0 0 17.849609 35.121094 C 17.836929 35.117786 17.823191 35.114648 17.810547 35.111328 A 1.0001 1.0001 0 0 0 17.800781 35.109375 C 16.520565 34.772709 15.420357 34.377891 14.511719 33.982422 C 12.211637 32.98135 11.158203 32.046875 11.158203 32.046875 A 1.0001 1.0001 0 0 0 10.521484 31.791016 A 1.0001 1.0001 0 0 0 9.8417969 33.552734 C 9.8417969 33.552734 11.187972 34.717478 13.712891 35.816406 C 14.376474 36.10522 15.13181 36.390791 15.966797 36.658203 L 14.369141 38.884766 C 13.428251 38.793006 11.587711 38.516568 9.5234375 37.716797 C 7.3314524 36.867546 5.1875783 35.508607 4.03125 33.673828 C 4.076698 29.105367 5.0568205 24.123544 6.28125 20.078125 C 6.9077487 18.008223 7.5904155 16.182095 8.2148438 14.792969 C 8.8320633 13.419879 9.4690336 12.454191 9.6699219 12.255859 C 12.696011 9.8986933 17.116173 9.2845319 18.263672 9.1445312 z M 18.5 21 C 17.047619 21 15.834562 21.674201 15.085938 22.636719 C 14.337312 23.599237 14 24.805556 14 26 C 14 27.194444 14.337313 28.400763 15.085938 29.363281 C 15.834561 30.325799 17.047619 31 18.5 31 C 19.952381 31 21.165439 30.325799 21.914062 29.363281 C 22.662687 28.400763 23 27.194444 23 26 C 23 24.805556 22.662688 23.599237 21.914062 22.636719 C 21.165439 21.674201 19.952381 21 18.5 21 z M 31.5 21 C 28.968421 21 27 23.315152 27 26 C 27 28.684848 28.968421 31 31.5 31 C 34.031579 31 36 28.684848 36 26 C 36 23.315152 34.031579 21 31.5 21 z M 18.5 23 C 19.380952 23 19.917896 23.325799 20.335938 23.863281 C 20.753979 24.400763 21 25.194444 21 26 C 21 26.805556 20.753979 27.599237 20.335938 28.136719 C 19.917896 28.674201 19.380952 29 18.5 29 C 17.619048 29 17.082104 28.674201 16.664062 28.136719 C 16.246021 27.599237 16 26.805556 16 26 C 16 25.194444 16.246021 24.400763 16.664062 23.863281 C 17.082104 23.325799 17.619048 23 18.5 23 z M 31.5 23 C 32.768421 23 34 24.284848 34 26 C 34 27.715152 32.768421 29 31.5 29 C 30.231579 29 29 27.715152 29 26 C 29 24.284848 30.231579 23 31.5 23 z"></path>
        </svg>
    </symbol>
    <symbol id="meetup" viewBox="0 0 25 25">
        <svg xmlns="http://www.w3.org/2000/svg" xmlns:xlink="http://www.w3.org/1999/xlink" xml:space="preserve"
            width="24" height="24" viewBox="0 0 650 620">
            <defs>
                <path id="a" d="M-176-190H824V810H-176z" />
            </defs>
            <clipPath id="b">
                <use xlink:href="#a" overflow="visible" />
            </clipPath>
            <path fill="#ED1C40"
                d="M465 539a28 28 0 1 0 32 46 28 28 0 0 0-32-46m-166 49a17 17 0 1 0 20 29 17 17 0 0 0-20-29M98 507a13 13 0 1 0 24-5 13 13 0 0 0-24 5M49 312a27 27 0 1 0-44-31 27 27 0 0 0 44 31m93-175a21 21 0 1 0-23-33 21 21 0 0 0 23 33m61-126a14 14 0 1 0-28 6 14 14 0 0 0 28-6m184 19a27 27 0 1 0-46 28 27 27 0 0 0 46-28m132 192A121 121 0 0 0 357 99a137 137 0 0 0-202 67 90 90 0 0 0-65 138 98 98 0 0 0 50 169 106 106 0 0 0 165 84l6-4a79 79 0 0 0 129-39 115 115 0 0 0 103-177 67 67 0 0 0-24-115m58-16a23 23 0 1 0-26-38 23 23 0 0 0 26 38m44 134a17 17 0 1 0-33 7 17 17 0 0 0 33-7m29-82a13 13 0 1 0-25 5 13 13 0 0 0 25-5"
                clip-path="url(#b)" />
            <path fill="#FFF"
                d="M457 427c-4-25-50-6-53-33-4-39 54-123 49-155-4-30-23-36-41-36-16 0-21 2-26 6-3 2-8 5-15-1l-11-10c-3-2-6-5-13-6-6-1-14 0-19 3-5 2-9 6-13 9-4 4-15 16-25 11l-29-13c-21-9-50 5-60 24-16 28-47 137-52 152-10 32 14 58 46 57 13-1 22-6 31-21 5-9 52-131 55-137 3-4 11-10 18-6s9 11 7 18c-1 12-34 86-35 95-2 14 4 22 19 23 10 0 20-4 28-19l61-119c5-7 9-10 15-10 4 0 10 2 8 13-1 12-43 88-47 107-6 25 8 50 30 61 14 7 77 19 72-13"
                clip-path="url(#b)" />
        </svg>
    </symbol>
    <symbol id="moon" viewBox="0 0 25 25">
        <svg class="w-10 h-10 fill-current swap-on dark:text-white" xmlns="http://www.w3.org/2000/svg"
            viewBox="0 0 24 24">
            <path
                d="M21.64,13a1,1,0,0,0-1.05-.14,8.05,8.05,0,0,1-3.37.73A8.15,8.15,0,0,1,9.08,5.49a8.59,8.59,0,0,1,.25-2A1,1,0,0,0,8,2.36,10.14,10.14,0,1,0,22,14.05,1,1,0,0,0,21.64,13Zm-9.5,6.69A8.14,8.14,0,0,1,7.08,5.22v.27A10.15,10.15,0,0,0,17.22,15.63a9.79,9.79,0,0,0,2.1-.22A8.11,8.11,0,0,1,12.14,19.73Z" />
        </svg>
    </symbol>
    <symbol id="sun" viewBox="0 0 25 25">
        <svg class="w-10 h-10 fill-yellow-500 swap-off" xmlns="http://www.w3.org/2000/svg" viewBox="0 0 24 24">
            <path
                d="M5.64,17l-.71.71a1,1,0,0,0,0,1.41,1,1,0,0,0,1.41,0l.71-.71A1,1,0,0,0,5.64,17ZM5,12a1,1,0,0,0-1-1H3a1,1,0,0,0,0,2H4A1,1,0,0,0,5,12Zm7-7a1,1,0,0,0,1-1V3a1,1,0,0,0-2,0V4A1,1,0,0,0,12,5ZM5.64,7.05a1,1,0,0,0,.7.29,1,1,0,0,0,.71-.29,1,1,0,0,0,0-1.41l-.71-.71A1,1,0,0,0,4.93,6.34Zm12,.29a1,1,0,0,0,.7-.29l.71-.71a1,1,0,1,0-1.41-1.41L17,5.64a1,1,0,0,0,0,1.41A1,1,0,0,0,17.66,7.34ZM21,11H20a1,1,0,0,0,0,2h1a1,1,0,0,0,0-2Zm-9,8a1,1,0,0,0-1,1v1a1,1,0,0,0,2,0V20A1,1,0,0,0,12,19ZM18.36,17A1,1,0,0,0,17,18.36l.71.71a1,1,0,0,0,1.41,0,1,1,0,0,0,0-1.41ZM12,6.5A5.5,5.5,0,1,0,17.5,12,5.51,5.51,0,0,0,12,6.5Zm0,9A3.5,3.5,0,1,1,15.5,12,3.5,3.5,0,0,1,12,15.5Z" />
        </svg>
    </symbol>

    <symbol id="hamburger">
        <svg xmlns="http://www.w3.org/2000/svg" class="w-5 h-5" fill="none" viewBox="0 0 24 24" stroke="currentColor">
            <path stroke-linecap="round" stroke-linejoin="round" stroke-width="2" d="M4 6h16M4 12h16M4 18h7" />
        </svg>
    </symbol>

</svg>