<svg style="display: none;" xmlns="http://www.w3.org/2000/svg">
    <symbol id="icon2" viewBox="0 0 25 25">
        <!-- SVG content -->
    </symbol>
    <symbol id="facebook" viewBox="0 0 25 25">
        <svg xmlns="http://www.w3.org/2000/svg" width="24" height="24" viewBox="0 0 24 24" fill="none">
            <path
                d="M9.04598 5.865V8.613H7.03198V11.973H9.04598V21.959H13.18V11.974H15.955C15.955 11.974 16.215 10.363 16.341 8.601H13.197V6.303C13.197 5.96 13.647 5.498 14.093 5.498H16.347V2H13.283C8.94298 2 9.04598 5.363 9.04598 5.865Z"
                fill="#F5F5F8" />
        </svg>
    </symbol>
    <symbol id="facebook-light" viewBox="0 0 25 25">
        <svg class="w-6 h-6 text-gray-800 dark:text-white" aria-hidden="true" xmlns="http://www.w3.org/2000/svg"
            width="24" height="24" fill="currentColor" viewBox="0 0 24 24">
            <path fill-rule="evenodd"
                d="M13.135 6H15V3h-1.865a4.147 4.147 0 0 0-4.142 4.142V9H7v3h2v9.938h3V12h2.021l.592-3H12V6.591A.6.6 0 0 1 12.592 6h.543Z"
                clip-rule="evenodd" />
        </svg>
    </symbol>
    <symbol id="linkedin" viewBox="0 0 25 25">
        <svg xmlns="http://www.w3.org/2000/svg" width="24" height="24" viewBox="0 0 24 24" fill="none">
            <path
                d="M21.959 13.719V21.098H17.681V14.213C17.681 12.483 17.062 11.303 15.514 11.303C14.332 11.303 13.628 12.099 13.319 12.868C13.206 13.143 13.177 13.526 13.177 13.911V21.098H8.897C8.897 21.098 8.955 9.438 8.897 8.229H13.177V10.053L13.149 10.095H13.177V10.053C13.745 9.178 14.76 7.927 17.033 7.927C19.848 7.927 21.959 9.767 21.959 13.719ZM4.421 2.026C2.958 2.026 2 2.986 2 4.249C2 5.484 2.93 6.473 4.365 6.473H4.393C5.886 6.473 6.813 5.484 6.813 4.249C6.787 2.986 5.887 2.026 4.422 2.026H4.421ZM2.254 21.098H6.532V8.229H2.254V21.098Z"
                fill="#F5F5F8" />
        </svg>
    </symbol>
    <symbol id="linkedin-light" viewBox="0 0 25 25">
        <svg class="w-6 h-6 text-gray-800 dark:text-white" aria-hidden="true" xmlns="http://www.w3.org/2000/svg"
            width="24" height="24" fill="currentColor" viewBox="0 0 24 24">
            <path fill-rule="evenodd"
                d="M12.51 8.796v1.697a3.738 3.738 0 0 1 3.288-1.684c3.455 0 4.202 2.16 4.202 4.97V19.5h-3.2v-5.072c0-1.21-.244-2.766-2.128-2.766-1.827 0-2.139 1.317-2.139 2.676V19.5h-3.19V8.796h3.168ZM7.2 6.106a1.61 1.61 0 0 1-.988 1.483 1.595 1.595 0 0 1-1.743-.348A1.607 1.607 0 0 1 5.6 4.5a1.601 1.601 0 0 1 1.6 1.606Z"
                clip-rule="evenodd" />
            <path d="M7.2 8.809H4V19.5h3.2V8.809Z" />
        </svg>

    </symbol>
    <symbol id="github" viewBox="0 0 25 25">
        <svg xmlns="http://www.w3.org/2000/svg" width="24" height="24" viewBox="0 0 24 24" fill="none">
            <path
                d="M12 0.999953C9.11346 0.970621 6.33338 2.08856 4.27073 4.10808C2.20809 6.12759 1.03166 8.88344 1 11.77C1.01112 14.0511 1.74494 16.2701 3.09606 18.1081C4.44718 19.9461 6.34607 21.3086 8.52 21.9999C9.07 22.0999 9.27 21.7699 9.27 21.4799C9.27 21.1899 9.27 20.5499 9.27 19.6499C6.21 20.2999 5.56 18.2099 5.56 18.2099C5.3563 17.5538 4.92323 16.993 4.34 16.6299C3.34 15.9699 4.42 15.98 4.42 15.98C4.76565 16.0262 5.09635 16.15 5.38731 16.3423C5.67826 16.5345 5.92192 16.7901 6.1 17.09C6.41033 17.6281 6.91953 18.0228 7.51801 18.1893C8.11649 18.3557 8.75639 18.2806 9.3 17.9799C9.35591 17.4323 9.60389 16.9222 10 16.54C7.56 16.27 5 15.35 5 11.22C4.97818 10.1426 5.37624 9.09906 6.11 8.30995C5.77583 7.38502 5.81529 6.36626 6.22 5.46995C6.22 5.46995 7.15 5.17995 9.22 6.56995C11.0219 6.08979 12.9181 6.08979 14.72 6.56995C16.82 5.17995 17.72 5.46995 17.72 5.46995C18.1247 6.36626 18.1642 7.38502 17.83 8.30995C18.5808 9.0846 19.0004 10.1212 19 11.2C19 15.34 16.42 16.25 14 16.52C14.265 16.7772 14.4697 17.09 14.5994 17.4358C14.729 17.7816 14.7805 18.1519 14.75 18.52V21.4699C14.75 21.4699 14.95 22.0999 15.5 21.9899C17.6678 21.2944 19.5603 19.9315 20.9072 18.0961C22.2541 16.2607 22.9866 14.0465 23 11.77C22.9683 8.88344 21.7919 6.12759 19.7293 4.10808C17.6666 2.08856 14.8865 0.970621 12 0.999953Z"
                fill="#F5F5F8" />
        </svg>
    </symbol>
    <symbol id="github-light" viewBox="0 0 25 25">
        <svg class="w-6 h-6 text-gray-800 dark:text-white" aria-hidden="true" xmlns="http://www.w3.org/2000/svg"
            width="24" height="24" fill="currentColor" viewBox="0 0 24 24">
            <path fill-rule="evenodd"
                d="M12.006 2a9.847 9.847 0 0 0-6.484 2.44 10.32 10.32 0 0 0-3.393 6.17 10.48 10.48 0 0 0 1.317 6.955 10.045 10.045 0 0 0 5.4 4.418c.504.095.683-.223.683-.494 0-.245-.01-1.052-.014-1.908-2.78.62-3.366-1.21-3.366-1.21a2.711 2.711 0 0 0-1.11-1.5c-.907-.637.07-.621.07-.621.317.044.62.163.885.346.266.183.487.426.647.71.135.253.318.476.538.655a2.079 2.079 0 0 0 2.37.196c.045-.52.27-1.006.635-1.37-2.219-.259-4.554-1.138-4.554-5.07a4.022 4.022 0 0 1 1.031-2.75 3.77 3.77 0 0 1 .096-2.713s.839-.275 2.749 1.05a9.26 9.26 0 0 1 5.004 0c1.906-1.325 2.74-1.05 2.74-1.05.37.858.406 1.828.101 2.713a4.017 4.017 0 0 1 1.029 2.75c0 3.939-2.339 4.805-4.564 5.058a2.471 2.471 0 0 1 .679 1.897c0 1.372-.012 2.477-.012 2.814 0 .272.18.592.687.492a10.05 10.05 0 0 0 5.388-4.421 10.473 10.473 0 0 0 1.313-6.948 10.32 10.32 0 0 0-3.39-6.165A9.847 9.847 0 0 0 12.007 2Z"
                clip-rule="evenodd" />
        </svg>

    </symbol>
    <symbol id="meetup" viewBox="0 0 25 25">
        <svg xmlns="http://www.w3.org/2000/svg" xmlns:xlink="http://www.w3.org/1999/xlink" xml:space="preserve"
            width="24" height="24" viewBox="0 0 650 620">
            <defs>
                <path id="a" d="M-176-190H824V810H-176z" />
            </defs>
            <clipPath id="b">
                <use xlink:href="#a" overflow="visible" />
            </clipPath>
            <path fill="#ED1C40"
                d="M465 539a28 28 0 1 0 32 46 28 28 0 0 0-32-46m-166 49a17 17 0 1 0 20 29 17 17 0 0 0-20-29M98 507a13 13 0 1 0 24-5 13 13 0 0 0-24 5M49 312a27 27 0 1 0-44-31 27 27 0 0 0 44 31m93-175a21 21 0 1 0-23-33 21 21 0 0 0 23 33m61-126a14 14 0 1 0-28 6 14 14 0 0 0 28-6m184 19a27 27 0 1 0-46 28 27 27 0 0 0 46-28m132 192A121 121 0 0 0 357 99a137 137 0 0 0-202 67 90 90 0 0 0-65 138 98 98 0 0 0 50 169 106 106 0 0 0 165 84l6-4a79 79 0 0 0 129-39 115 115 0 0 0 103-177 67 67 0 0 0-24-115m58-16a23 23 0 1 0-26-38 23 23 0 0 0 26 38m44 134a17 17 0 1 0-33 7 17 17 0 0 0 33-7m29-82a13 13 0 1 0-25 5 13 13 0 0 0 25-5"
                clip-path="url(#b)" />
            <path fill="#FFF"
                d="M457 427c-4-25-50-6-53-33-4-39 54-123 49-155-4-30-23-36-41-36-16 0-21 2-26 6-3 2-8 5-15-1l-11-10c-3-2-6-5-13-6-6-1-14 0-19 3-5 2-9 6-13 9-4 4-15 16-25 11l-29-13c-21-9-50 5-60 24-16 28-47 137-52 152-10 32 14 58 46 57 13-1 22-6 31-21 5-9 52-131 55-137 3-4 11-10 18-6s9 11 7 18c-1 12-34 86-35 95-2 14 4 22 19 23 10 0 20-4 28-19l61-119c5-7 9-10 15-10 4 0 10 2 8 13-1 12-43 88-47 107-6 25 8 50 30 61 14 7 77 19 72-13"
                clip-path="url(#b)" />
        </svg>
    </symbol>
    <symbol id="moon" viewBox="0 0 25 25">
        <svg class="w-10 h-10 fill-current swap-on" xmlns="http://www.w3.org/2000/svg" viewBox="0 0 24 24">
            <path
                d="M21.64,13a1,1,0,0,0-1.05-.14,8.05,8.05,0,0,1-3.37.73A8.15,8.15,0,0,1,9.08,5.49a8.59,8.59,0,0,1,.25-2A1,1,0,0,0,8,2.36,10.14,10.14,0,1,0,22,14.05,1,1,0,0,0,21.64,13Zm-9.5,6.69A8.14,8.14,0,0,1,7.08,5.22v.27A10.15,10.15,0,0,0,17.22,15.63a9.79,9.79,0,0,0,2.1-.22A8.11,8.11,0,0,1,12.14,19.73Z" />
        </svg>
    </symbol>
    <symbol id="sun" viewBox="0 0 25 25">
        <svg class="w-10 h-10 fill-current swap-off" xmlns="http://www.w3.org/2000/svg" viewBox="0 0 24 24">
            <path
                d="M5.64,17l-.71.71a1,1,0,0,0,0,1.41,1,1,0,0,0,1.41,0l.71-.71A1,1,0,0,0,5.64,17ZM5,12a1,1,0,0,0-1-1H3a1,1,0,0,0,0,2H4A1,1,0,0,0,5,12Zm7-7a1,1,0,0,0,1-1V3a1,1,0,0,0-2,0V4A1,1,0,0,0,12,5ZM5.64,7.05a1,1,0,0,0,.7.29,1,1,0,0,0,.71-.29,1,1,0,0,0,0-1.41l-.71-.71A1,1,0,0,0,4.93,6.34Zm12,.29a1,1,0,0,0,.7-.29l.71-.71a1,1,0,1,0-1.41-1.41L17,5.64a1,1,0,0,0,0,1.41A1,1,0,0,0,17.66,7.34ZM21,11H20a1,1,0,0,0,0,2h1a1,1,0,0,0,0-2Zm-9,8a1,1,0,0,0-1,1v1a1,1,0,0,0,2,0V20A1,1,0,0,0,12,19ZM18.36,17A1,1,0,0,0,17,18.36l.71.71a1,1,0,0,0,1.41,0,1,1,0,0,0,0-1.41ZM12,6.5A5.5,5.5,0,1,0,17.5,12,5.51,5.51,0,0,0,12,6.5Zm0,9A3.5,3.5,0,1,1,15.5,12,3.5,3.5,0,0,1,12,15.5Z" />
        </svg>
    </symbol>
    <symbol id="hamburger">
        <svg xmlns="http://www.w3.org/2000/svg" class="w-5 h-5" fill="none" viewBox="0 0 24 24" stroke="currentColor">
            <path stroke-linecap="round" stroke-linejoin="round" stroke-width="2" d="M4 6h16M4 12h16M4 18h7" />
        </svg>
    </symbol>

</svg>